<svg width="21" height="17" viewBox="0 0 21 17" fill="none" xmlns="http://www.w3.org/2000/svg">
<path fill-rule="evenodd" clip-rule="evenodd" d="M2.50967 2.76292V13.632C4.75549 12.7917 7.2451 12.7889 9.50586 13.6352V2.80309C7.29967 1.71569 4.71769 1.70231 2.50967 2.76292ZM11.0047 16.0794C10.9514 16.1086 10.8956 16.1328 10.8384 16.152C10.7341 16.1891 10.622 16.2094 10.5053 16.2094C10.3964 16.2094 10.292 16.1923 10.1945 16.1609C10.1287 16.1405 10.0652 16.1134 10.0053 16.0794C7.52659 14.6515 4.47823 14.6515 2.00955 16.0794H2.00855C1.51882 16.349 0.909144 16.1893 0.639289 15.7099C0.522445 15.5057 0.482264 15.2805 0.510742 15.0678V2.37209C0.503899 2.32518 0.500358 2.27724 0.500358 2.22851C0.490364 1.85905 0.690256 1.52953 1.00009 1.34979L0.990095 1.3408C3.90853 -0.336763 7.46662 -0.436618 10.485 1.07119C13.4834 -0.446604 17.0615 -0.346749 19.9799 1.3408C20.0728 1.39413 20.154 1.46073 20.2224 1.53699C20.3941 1.71538 20.4999 1.95843 20.4999 2.22967V15.2108C20.4999 15.76 20.0501 16.2094 19.5004 16.2094C19.3482 16.2094 19.2048 16.1761 19.0768 16.1167C19.0508 16.1051 19.0253 16.0927 19.0004 16.0794C16.5218 14.6515 13.4734 14.6515 11.0047 16.0794ZM18.501 13.6397V2.80306C16.2948 1.71569 13.7128 1.70231 11.5048 2.76295V13.6369C13.7652 12.7963 16.2476 12.8011 18.501 13.6397Z" fill="white"/>
</svg>
