<svg width="25" height="24" viewBox="0 0 25 24" fill="none" xmlns="http://www.w3.org/2000/svg">
<path d="M2.66676 12C2.66676 6.477 7.14376 2 12.6668 2C18.1898 2 22.6668 6.477 22.6668 12C22.6668 17.523 18.1898 22 12.6668 22C11.0019 22.0024 9.3629 21.5874 7.89976 20.793L3.78226 21.964C3.12276 22.1515 2.51376 21.542 2.70126 20.883L3.87226 16.764C3.07877 15.3016 2.66432 13.6638 2.66676 12ZM8.66676 10.125C8.66676 10.47 8.94676 10.75 9.29176 10.75H16.0418C16.1238 10.75 16.2051 10.7338 16.2809 10.7024C16.3568 10.671 16.4257 10.625 16.4837 10.5669C16.5417 10.5089 16.5878 10.44 16.6192 10.3642C16.6506 10.2883 16.6668 10.2071 16.6668 10.125C16.6668 10.0429 16.6506 9.96165 16.6192 9.88582C16.5878 9.80999 16.5417 9.74109 16.4837 9.68306C16.4257 9.62502 16.3568 9.57898 16.2809 9.54757C16.2051 9.51617 16.1238 9.5 16.0418 9.5H9.29176C8.94676 9.5 8.66676 9.78 8.66676 10.125ZM9.29176 13.25C9.126 13.25 8.96703 13.3158 8.84982 13.4331C8.73261 13.5503 8.66676 13.7092 8.66676 13.875C8.66676 14.0408 8.73261 14.1997 8.84982 14.3169C8.96703 14.4342 9.126 14.5 9.29176 14.5H14.0418C14.2075 14.5 14.3665 14.4342 14.4837 14.3169C14.6009 14.1997 14.6668 14.0408 14.6668 13.875C14.6668 13.7092 14.6009 13.5503 14.4837 13.4331C14.3665 13.3158 14.2075 13.25 14.0418 13.25H9.29176Z" fill="#979797"/>
</svg>
