<svg width="25" height="24" viewBox="0 0 25 24" fill="none" xmlns="http://www.w3.org/2000/svg">
<path d="M11.5 14V20H9.5C8.94772 20 8.5 20.4477 8.5 21C8.5 21.5523 8.94772 22 9.5 22H15.5C16.0523 22 16.5 21.5523 16.5 21C16.5 20.4477 16.0523 20 15.5 20H13.5V14H11.5Z" fill="white"/>
<path fill-rule="evenodd" clip-rule="evenodd" d="M7.32851 2.53911C7.92936 2.10652 8.61871 2 9.18248 2L15.8172 2.00001C16.381 2.00001 17.0704 2.1065 17.6713 2.53908C19.8618 4.11605 20.9338 7.45925 20.3408 10.354C20.036 11.8416 19.2833 13.2732 17.9598 14.3284C16.6349 15.3848 14.8187 16 12.4999 16C10.181 16 8.3649 15.3848 7.03999 14.3284C5.71651 13.2732 4.96384 11.8416 4.65908 10.354C4.06604 7.45926 5.13812 4.11609 7.32851 2.53911ZM9.18247 4C8.84423 4 8.62824 4.06777 8.49707 4.16221C7.06501 5.19323 6.15172 7.67473 6.61838 9.95263C6.84347 11.0514 7.38192 12.0431 8.28683 12.7647C9.1903 13.485 10.5398 14 12.4999 14C14.4599 14 15.8095 13.485 16.713 12.7646C17.6179 12.0431 18.1564 11.0513 18.3815 9.9526C18.8482 7.6747 17.9349 5.19322 16.5027 4.16223C16.3716 4.06778 16.1556 4.00001 15.8173 4.00002L9.18247 4Z" fill="white"/>
</svg>
