<svg width="14" height="16" viewBox="0 0 14 16" fill="none" xmlns="http://www.w3.org/2000/svg">
<path d="M4.50004 2.16666C4.27903 2.16666 4.06707 2.25446 3.91079 2.41074C3.7545 2.56702 3.66671 2.77898 3.66671 3C3.66671 3.22101 3.7545 3.43297 3.91079 3.58925C4.06707 3.74553 4.27903 3.83333 4.50004 3.83333C4.72105 3.83333 4.93302 3.74553 5.0893 3.58925C5.24558 3.43297 5.33337 3.22101 5.33337 3C5.33337 2.77898 5.24558 2.56702 5.0893 2.41074C4.93302 2.25446 4.72105 2.16666 4.50004 2.16666ZM2.14171 2.16666C2.31388 1.67872 2.63316 1.25619 3.05554 0.957322C3.47792 0.658452 3.98261 0.497955 4.50004 0.497955C5.01747 0.497955 5.52216 0.658452 5.94454 0.957322C6.36692 1.25619 6.68621 1.67872 6.85837 2.16666H12.8334C13.0544 2.16666 13.2663 2.25446 13.4226 2.41074C13.5789 2.56702 13.6667 2.77898 13.6667 3C13.6667 3.22101 13.5789 3.43297 13.4226 3.58925C13.2663 3.74553 13.0544 3.83333 12.8334 3.83333H6.85837C6.68621 4.32127 6.36692 4.7438 5.94454 5.04267C5.52216 5.34154 5.01747 5.50204 4.50004 5.50204C3.98261 5.50204 3.47792 5.34154 3.05554 5.04267C2.63316 4.7438 2.31388 4.32127 2.14171 3.83333H1.16671C0.945694 3.83333 0.733732 3.74553 0.577452 3.58925C0.421172 3.43297 0.333374 3.22101 0.333374 3C0.333374 2.77898 0.421172 2.56702 0.577452 2.41074C0.733732 2.25446 0.945694 2.16666 1.16671 2.16666H2.14171ZM9.50004 7.16666C9.27903 7.16666 9.06707 7.25446 8.91078 7.41074C8.7545 7.56702 8.66671 7.77898 8.66671 8C8.66671 8.22101 8.7545 8.43297 8.91078 8.58925C9.06707 8.74553 9.27903 8.83333 9.50004 8.83333C9.72105 8.83333 9.93302 8.74553 10.0893 8.58925C10.2456 8.43297 10.3334 8.22101 10.3334 8C10.3334 7.77898 10.2456 7.56702 10.0893 7.41074C9.93302 7.25446 9.72105 7.16666 9.50004 7.16666ZM7.14171 7.16666C7.31388 6.67872 7.63316 6.25619 8.05554 5.95732C8.47792 5.65845 8.98261 5.49795 9.50004 5.49795C10.0175 5.49795 10.5222 5.65845 10.9445 5.95732C11.3669 6.25619 11.6862 6.67872 11.8584 7.16666H12.8334C13.0544 7.16666 13.2663 7.25446 13.4226 7.41074C13.5789 7.56702 13.6667 7.77898 13.6667 8C13.6667 8.22101 13.5789 8.43297 13.4226 8.58925C13.2663 8.74553 13.0544 8.83333 12.8334 8.83333H11.8584C11.6862 9.32128 11.3669 9.7438 10.9445 10.0427C10.5222 10.3415 10.0175 10.502 9.50004 10.502C8.98261 10.502 8.47792 10.3415 8.05554 10.0427C7.63316 9.7438 7.31388 9.32128 7.14171 8.83333H1.16671C0.945694 8.83333 0.733732 8.74553 0.577452 8.58925C0.421172 8.43297 0.333374 8.22101 0.333374 8C0.333374 7.77898 0.421172 7.56702 0.577452 7.41074C0.733732 7.25446 0.945694 7.16666 1.16671 7.16666H7.14171ZM4.50004 12.1667C4.27903 12.1667 4.06707 12.2545 3.91079 12.4107C3.7545 12.567 3.66671 12.779 3.66671 13C3.66671 13.221 3.7545 13.433 3.91079 13.5893C4.06707 13.7455 4.27903 13.8333 4.50004 13.8333C4.72105 13.8333 4.93302 13.7455 5.0893 13.5893C5.24558 13.433 5.33337 13.221 5.33337 13C5.33337 12.779 5.24558 12.567 5.0893 12.4107C4.93302 12.2545 4.72105 12.1667 4.50004 12.1667ZM2.14171 12.1667C2.31388 11.6787 2.63316 11.2562 3.05554 10.9573C3.47792 10.6585 3.98261 10.498 4.50004 10.498C5.01747 10.498 5.52216 10.6585 5.94454 10.9573C6.36692 11.2562 6.68621 11.6787 6.85837 12.1667H12.8334C13.0544 12.1667 13.2663 12.2545 13.4226 12.4107C13.5789 12.567 13.6667 12.779 13.6667 13C13.6667 13.221 13.5789 13.433 13.4226 13.5893C13.2663 13.7455 13.0544 13.8333 12.8334 13.8333H6.85837C6.68621 14.3213 6.36692 14.7438 5.94454 15.0427C5.52216 15.3415 5.01747 15.502 4.50004 15.502C3.98261 15.502 3.47792 15.3415 3.05554 15.0427C2.63316 14.7438 2.31388 14.3213 2.14171 13.8333H1.16671C0.945694 13.8333 0.733732 13.7455 0.577452 13.5893C0.421172 13.433 0.333374 13.221 0.333374 13C0.333374 12.779 0.421172 12.567 0.577452 12.4107C0.733732 12.2545 0.945694 12.1667 1.16671 12.1667H2.14171Z" fill="white"/>
</svg>
