<svg width="25" height="24" viewBox="0 0 25 24" fill="none" xmlns="http://www.w3.org/2000/svg">
<path fill-rule="evenodd" clip-rule="evenodd" d="M20.5 7.7587V16.2413C20.5 17.0463 20.5 17.7106 20.4558 18.2518C20.4099 18.8139 20.3113 19.3306 20.064 19.816C19.6805 20.5686 19.0686 21.1805 18.316 21.564C17.8306 21.8113 17.3139 21.9099 16.7518 21.9558C16.2106 22 15.5462 22 14.7412 22H10.2588C9.45377 22 8.78938 22 8.24817 21.9558C7.68608 21.9099 7.16937 21.8113 6.68404 21.564C5.93139 21.1805 5.31947 20.5686 4.93597 19.816C4.68868 19.3306 4.59012 18.8139 4.54419 18.2518C4.49998 17.7106 4.49999 17.0463 4.5 16.2413L4.5 7.75872C4.49999 6.95374 4.49998 6.28938 4.54419 5.74817C4.59012 5.18608 4.68868 4.66937 4.93597 4.18404C5.31947 3.43139 5.93139 2.81947 6.68404 2.43597C7.16937 2.18868 7.68608 2.09012 8.24817 2.04419C8.78937 1.99998 9.45373 1.99999 10.2587 2L14.7413 2C15.5463 1.99999 16.2106 1.99998 16.7518 2.04419C17.3139 2.09012 17.8306 2.18868 18.316 2.43598C19.0686 2.81947 19.6805 3.43139 20.064 4.18404C20.3113 4.66937 20.4099 5.18608 20.4558 5.74818C20.5 6.28937 20.5 6.95373 20.5 7.7587ZM18.4624 5.91104C18.4266 5.47262 18.3617 5.24842 18.282 5.09202C18.0903 4.7157 17.7843 4.40973 17.408 4.21799C17.2516 4.1383 17.0274 4.07337 16.589 4.03755C16.1389 4.00078 15.5566 4 14.7 4L10.3 4C9.44342 4 8.86113 4.00078 8.41104 4.03755C7.97262 4.07337 7.74842 4.1383 7.59202 4.21799C7.21569 4.40973 6.90973 4.7157 6.71799 5.09202C6.6383 5.24842 6.57337 5.47262 6.53755 5.91104C6.50078 6.36113 6.5 6.94342 6.5 7.8L6.5 16.2C6.5 17.0566 6.50078 17.6389 6.53755 18.089C6.57337 18.5274 6.6383 18.7516 6.71799 18.908C6.90973 19.2843 7.21569 19.5903 7.59202 19.782C7.74842 19.8617 7.97262 19.9266 8.41104 19.9624C8.86113 19.9992 9.44342 20 10.3 20H14.7C15.5566 20 16.1389 19.9992 16.589 19.9624C17.0274 19.9266 17.2516 19.8617 17.408 19.782C17.7843 19.5903 18.0903 19.2843 18.282 18.908C18.3617 18.7516 18.4266 18.5274 18.4624 18.089C18.4992 17.6389 18.5 17.0566 18.5 16.2L18.5 7.8C18.5 6.94342 18.4992 6.36113 18.4624 5.91104Z" fill="white"/>
<path d="M11.7929 6.29289C12.1834 5.90237 12.8166 5.90237 13.2071 6.29289L15.2071 8.29289C15.5976 8.68342 15.5976 9.31658 15.2071 9.70711C14.8166 10.0976 14.1834 10.0976 13.7929 9.70711L13.5 9.41421L13.5 14.5858L13.7929 14.2929C14.1834 13.9024 14.8166 13.9024 15.2071 14.2929C15.5976 14.6834 15.5976 15.3166 15.2071 15.7071L13.2071 17.7071C12.8166 18.0976 12.1834 18.0976 11.7929 17.7071L9.79289 15.7071C9.40237 15.3166 9.40237 14.6834 9.79289 14.2929C10.1834 13.9024 10.8166 13.9024 11.2071 14.2929L11.5 14.5858L11.5 9.41421L11.2071 9.70711C10.8166 10.0976 10.1834 10.0976 9.79289 9.70711C9.40237 9.31658 9.40237 8.68342 9.79289 8.29289L11.7929 6.29289Z" fill="white"/>
</svg>
