<svg width="49" height="48" viewBox="0 0 49 48" fill="none" xmlns="http://www.w3.org/2000/svg">
<path d="M24.8333 48C31.1985 48 37.303 45.4714 41.8039 40.9706C46.3048 36.4697 48.8333 30.3652 48.8333 24C48.8333 17.6348 46.3048 11.5303 41.8039 7.02944C37.303 2.52856 31.1985 0 24.8333 0C18.4681 0 12.3637 2.52856 7.86278 7.02944C3.36191 11.5303 0.833344 17.6348 0.833344 24C0.833344 30.3652 3.36191 36.4697 7.86278 40.9706C12.3637 45.4714 18.4681 48 24.8333 48ZM37.2177 29.325C38.3708 28.9687 39.4958 29.9719 39.0271 31.0781C36.6833 36.6187 31.2271 40.5 24.8615 40.5C18.4958 40.5 13.0302 36.6187 10.6958 31.0781C10.2271 29.9719 11.3521 28.9687 12.5052 29.325C16.2271 30.4687 20.4271 31.1062 24.8615 31.1062C29.2958 31.1062 33.4958 30.4687 37.2177 29.325ZM14.3708 19.5C14.3708 18.7044 14.6869 17.9413 15.2495 17.3787C15.8121 16.8161 16.5752 16.5 17.3708 16.5C18.1665 16.5 18.9296 16.8161 19.4922 17.3787C20.0548 17.9413 20.3708 18.7044 20.3708 19.5C20.3708 20.2956 20.0548 21.0587 19.4922 21.6213C18.9296 22.1839 18.1665 22.5 17.3708 22.5C16.5752 22.5 15.8121 22.1839 15.2495 21.6213C14.6869 21.0587 14.3708 20.2956 14.3708 19.5ZM32.3708 16.5C33.1665 16.5 33.9296 16.8161 34.4922 17.3787C35.0548 17.9413 35.3708 18.7044 35.3708 19.5C35.3708 20.2956 35.0548 21.0587 34.4922 21.6213C33.9296 22.1839 33.1665 22.5 32.3708 22.5C31.5752 22.5 30.8121 22.1839 30.2495 21.6213C29.6869 21.0587 29.3708 20.2956 29.3708 19.5C29.3708 18.7044 29.6869 17.9413 30.2495 17.3787C30.8121 16.8161 31.5752 16.5 32.3708 16.5Z" fill="#D1D5DB"/>
</svg>
