<svg width="25" height="24" viewBox="0 0 25 24" fill="none" xmlns="http://www.w3.org/2000/svg">
<path fill-rule="evenodd" clip-rule="evenodd" d="M17.4933 4.88338C17.4355 4.38604 17.0128 4 16.5 4C15.9477 4 15.5 4.44772 15.5 5V5.5L15.5051 5.67627C15.5963 7.25108 16.9023 8.5 18.5 8.5L18.6166 8.50673C19.114 8.56449 19.5 8.98716 19.5 9.5V10L19.5067 10.1166C19.5645 10.614 19.9872 11 20.5 11C21.0523 11 21.5 10.5523 21.5 10V9.5L21.4949 9.32373C21.4037 7.74892 20.0977 6.5 18.5 6.5C17.9477 6.5 17.5 6.05228 17.5 5.5V5L17.4933 4.88338ZM4.5 12H8.5H20.5C21.6046 12 22.5 12.8954 22.5 14V16C22.5 17.1046 21.6046 18 20.5 18H8.5H4.5C3.39543 18 2.5 17.1046 2.5 16V14C2.5 12.8954 3.39543 12 4.5 12ZM4.5 14H7.5V16H4.5V14ZM9.5 14V16H20.5V14H9.5Z" fill="white"/>
</svg>
