<svg width="14" height="12" viewBox="0 0 14 12" fill="none" xmlns="http://www.w3.org/2000/svg">
<path d="M6.52447 0.463526C6.67415 0.00287056 7.32585 0.00286996 7.47553 0.463525L8.5716 3.83688C8.63854 4.04289 8.83051 4.18237 9.04713 4.18237H12.5941C13.0784 4.18237 13.2798 4.80218 12.888 5.08688L10.0184 7.17173C9.84318 7.29905 9.76985 7.52474 9.83679 7.73075L10.9329 11.1041C11.0825 11.5648 10.5553 11.9478 10.1634 11.6631L7.29389 9.57827C7.11865 9.45095 6.88135 9.45095 6.70611 9.57827L3.83656 11.6631C3.4447 11.9478 2.91746 11.5648 3.06714 11.1041L4.16321 7.73075C4.23015 7.52474 4.15682 7.29905 3.98157 7.17173L1.11203 5.08688C0.720169 4.80218 0.921556 4.18237 1.40592 4.18237H4.95287C5.16949 4.18237 5.36146 4.04289 5.4284 3.83688L6.52447 0.463526Z" fill="#FBAA47"/>
</svg>
