<svg width="25" height="24" viewBox="0 0 25 24" fill="none" xmlns="http://www.w3.org/2000/svg">
<path fill-rule="evenodd" clip-rule="evenodd" d="M9.50001 4C8.07285 4 7.10495 5.45186 7.65385 6.76923L8.42308 8.61538C8.6355 9.12519 8.39442 9.71066 7.88462 9.92308C7.37482 10.1355 6.78935 9.89442 6.57693 9.38462L5.8077 7.53846C4.70989 4.90371 6.64569 2 9.50001 2H15.4938C18.3433 2 20.279 4.8946 19.1905 7.52795L18.4242 9.38199C18.2132 9.89239 17.6284 10.1351 17.118 9.92417C16.6076 9.7132 16.3649 9.12841 16.5758 8.61801L17.3422 6.76398C17.8864 5.4473 16.9186 4 15.4938 4H9.50001Z" fill="white"/>
<path fill-rule="evenodd" clip-rule="evenodd" d="M12.5 8C9.18629 8 6.5 10.6863 6.5 14C6.5 17.3137 9.18629 20 12.5 20C15.8137 20 18.5 17.3137 18.5 14C18.5 10.6863 15.8137 8 12.5 8ZM4.5 14C4.5 9.58172 8.08172 6 12.5 6C16.9183 6 20.5 9.58172 20.5 14C20.5 18.4183 16.9183 22 12.5 22C8.08172 22 4.5 18.4183 4.5 14Z" fill="white"/>
</svg>
